<svg width="28" height="28" viewBox="0 0 28 28" fill="none" xmlns="http://www.w3.org/2000/svg">
<path d="M15.1666 2.33336C12.4079 2.06842 9.64491 2.79422 7.37255 4.38076C5.10018 5.96731 3.46682 8.31098 2.76497 10.9921C2.06312 13.6731 2.33862 16.5165 3.54213 19.013C4.74565 21.5094 6.79857 23.4959 9.33325 24.6167C10.8012 25.2805 12.3891 25.6378 13.9999 25.6667C16.5642 25.6669 19.0572 24.8222 21.0933 23.2634C21.339 23.076 21.5003 22.7988 21.5419 22.4925C21.5835 22.1863 21.5018 21.8761 21.3149 21.63C21.222 21.5067 21.1056 21.403 20.9724 21.325C20.8391 21.247 20.6917 21.1962 20.5387 21.1756C20.3857 21.155 20.2301 21.1649 20.081 21.2049C19.9318 21.2448 19.7921 21.314 19.6699 21.4084C18.4599 22.3223 17.0455 22.9277 15.5489 23.1722C14.0524 23.4166 12.5188 23.2927 11.0809 22.8112C9.64301 22.3298 8.34407 21.5052 7.29648 20.4089C6.24888 19.3125 5.48418 17.9775 5.06854 16.5192C4.6529 15.0609 4.59884 13.5233 4.91102 12.0394C5.22321 10.5555 5.89225 9.16999 6.86025 8.00279C7.82826 6.83558 9.06608 5.92181 10.4666 5.34053C11.8672 4.75925 13.3882 4.52797 14.8983 4.66669C17.2417 4.93793 19.4014 6.06861 20.9595 7.84003C22.5175 9.61145 23.3633 11.8977 23.3333 14.2567V15.05C23.3319 15.318 23.2766 15.583 23.1705 15.8292C23.0645 16.0754 22.91 16.2976 22.7162 16.4828C22.5223 16.6679 22.2932 16.812 22.0424 16.9066C21.7916 17.0012 21.5244 17.0443 21.2566 17.0334C20.7225 16.9747 20.2305 16.7158 19.8798 16.3088C19.5291 15.9018 19.3457 15.3769 19.3666 14.84V9.80002C19.3666 9.4906 19.2437 9.19386 19.0249 8.97506C18.8061 8.75627 18.5093 8.63336 18.1999 8.63336C17.9151 8.63094 17.6392 8.73282 17.4243 8.9198C17.2094 9.10677 17.0703 9.36591 17.0333 9.64836C15.9475 8.62586 14.5113 8.05808 13.0199 8.06169C12.0063 8.06929 11.0115 8.33623 10.1302 8.83709C9.24895 9.33795 8.51057 10.0561 7.98536 10.923C7.46016 11.79 7.16563 12.777 7.12981 13.79C7.09399 14.803 7.31808 15.8084 7.78074 16.7103C8.2434 17.6122 8.92923 18.3807 9.77292 18.9425C10.6166 19.5044 11.5901 19.8409 12.6006 19.92C13.6112 19.9992 14.6252 19.8184 15.5461 19.3948C16.467 18.9712 17.2641 18.3189 17.8616 17.5C18.2002 18.0239 18.6513 18.4657 19.1821 18.7935C19.7128 19.1212 20.3099 19.3267 20.9299 19.3948C21.55 19.463 22.1774 19.3921 22.7667 19.1875C23.356 18.9828 23.8922 18.6495 24.3366 18.2117C24.7642 17.8048 25.1031 17.3139 25.332 16.7699C25.5609 16.2258 25.6748 15.6402 25.6666 15.05V14.2567C25.6927 11.3248 24.6355 8.48654 22.6978 6.28615C20.76 4.08576 18.0782 2.67818 15.1666 2.33336ZM13.0433 17.605C12.3303 17.605 11.6333 17.3936 11.0404 16.9975C10.4476 16.6013 9.98552 16.0383 9.71267 15.3796C9.43981 14.7209 9.36842 13.996 9.50752 13.2967C9.64662 12.5974 9.98996 11.9551 10.4941 11.4509C10.9983 10.9467 11.6407 10.6034 12.34 10.4643C13.0393 10.3252 13.7641 10.3966 14.4228 10.6694C15.0816 10.9423 15.6446 11.4044 16.0407 11.9972C16.4368 12.59 16.6483 13.287 16.6483 14C16.6452 14.9552 16.2644 15.8703 15.589 16.5457C14.9136 17.2211 13.9984 17.6019 13.0433 17.605Z" fill="#AAAAAA"/>
</svg>
