<svg width="208" height="208" viewBox="0 0 208 208" fill="none" xmlns="http://www.w3.org/2000/svg">
<circle cx="104" cy="104" r="103.5" fill="white" stroke="#48CAE4"/>
<path d="M103.5 103.5C115.812 103.5 125.792 93.5196 125.792 81.2083C125.792 68.8969 115.812 58.9166 103.5 58.9166C91.1888 58.9166 81.2085 68.8969 81.2085 81.2083C81.2085 93.5196 91.1888 103.5 103.5 103.5Z" stroke="#48CAE4" stroke-width="2"/>
<path d="M125.792 112.417H127.361C130.62 112.418 133.767 113.609 136.211 115.766C138.654 117.924 140.225 120.899 140.629 124.133L142.372 138.061C142.529 139.316 142.417 140.589 142.044 141.798C141.671 143.006 141.045 144.121 140.208 145.069C139.371 146.016 138.342 146.775 137.19 147.295C136.037 147.815 134.787 148.084 133.523 148.083H73.4777C72.2132 148.084 70.9632 147.815 69.8105 147.295C68.6578 146.775 67.6288 146.016 66.7919 145.069C65.9549 144.121 65.3291 143.006 64.9561 141.798C64.583 140.589 64.4711 139.316 64.6279 138.061L66.3667 124.133C66.771 120.897 68.3435 117.921 70.7886 115.763C73.2336 113.605 76.3826 112.415 79.6436 112.417H81.2084" stroke="#48CAE4" stroke-width="2" stroke-linecap="round" stroke-linejoin="round"/>
</svg>
