<svg width="66" height="66" viewBox="0 0 66 66" fill="none" xmlns="http://www.w3.org/2000/svg">
<path d="M33 16.5C30.9604 16.5 28.9666 17.1048 27.2707 18.238C25.5748 19.3711 24.253 20.9817 23.4725 22.8661C22.692 24.7504 22.4877 26.8239 22.8857 28.8244C23.2836 30.8248 24.2657 32.6623 25.708 34.1045C27.1502 35.5468 28.9877 36.5289 30.9881 36.9268C32.9886 37.3248 35.0621 37.1205 36.9464 36.34C38.8308 35.5595 40.4414 34.2377 41.5745 32.5418C42.7077 30.8459 43.3125 28.8521 43.3125 26.8125C43.3125 24.0775 42.226 21.4544 40.292 19.5205C38.3581 17.5865 35.7351 16.5 33 16.5ZM33 33C31.7762 33 30.5799 32.6371 29.5624 31.9572C28.5449 31.2773 27.7518 30.311 27.2835 29.1804C26.8152 28.0497 26.6926 26.8056 26.9314 25.6054C27.1701 24.4051 27.7594 23.3026 28.6248 22.4373C29.4901 21.5719 30.5926 20.9826 31.7929 20.7439C32.9931 20.5051 34.2372 20.6277 35.3679 21.096C36.4985 21.5643 37.4648 22.3574 38.1447 23.3749C38.8246 24.3924 39.1875 25.5887 39.1875 26.8125C39.1859 28.453 38.5334 30.0259 37.3734 31.1859C36.2134 32.3459 34.6405 32.9984 33 33Z" fill="#48CAE4"/>
<path d="M33 4.125C27.2891 4.125 21.7064 5.81849 16.9579 8.99132C12.2094 12.1641 8.50846 16.6738 6.32298 21.95C4.1375 27.2262 3.56567 33.032 4.67982 38.6332C5.79397 44.2344 8.54405 49.3795 12.5823 53.4177C16.6205 57.4559 21.7656 60.206 27.3668 61.3202C32.968 62.4343 38.7738 61.8625 44.05 59.677C49.3262 57.4915 53.8359 53.7906 57.0087 49.0421C60.1815 44.2936 61.875 38.7109 61.875 33C61.8663 25.3446 58.8213 18.0052 53.4081 12.5919C47.9948 7.17872 40.6554 4.13373 33 4.125ZM20.625 54.4026V51.5625C20.6266 49.922 21.2791 48.3491 22.4391 47.1891C23.5991 46.0291 25.172 45.3766 26.8125 45.375H39.1875C40.828 45.3766 42.4009 46.0291 43.5609 47.1891C44.7209 48.3491 45.3734 49.922 45.375 51.5625V54.4026C41.6195 56.5954 37.3488 57.751 33 57.751C28.6512 57.751 24.3805 56.5954 20.625 54.4026ZM49.4835 51.4099C49.4424 48.7046 48.3402 46.1237 46.4143 44.2233C44.4885 42.3229 41.8931 41.2551 39.1875 41.25H26.8125C24.1069 41.2551 21.5115 42.3229 19.5857 44.2233C17.6598 46.1237 16.5576 48.7046 16.5165 51.4099C12.7763 48.0702 10.1387 43.6732 8.95297 38.8011C7.76725 33.9291 8.08933 28.8118 9.87656 24.1268C11.6638 19.4419 14.8319 15.4103 18.9613 12.5659C23.0908 9.72152 27.9868 8.19849 33.001 8.19849C38.0153 8.19849 42.9113 9.72152 47.0407 12.5659C51.1702 15.4103 54.3383 19.4419 56.1255 24.1268C57.9127 28.8118 58.2348 33.9291 57.0491 38.8011C55.8634 43.6732 53.2258 48.0702 49.4856 51.4099H49.4835Z" fill="#48CAE4"/>
</svg>
