<svg width="35" height="35" viewBox="0 0 35 35" fill="none" xmlns="http://www.w3.org/2000/svg">
<path d="M18.7472 0.517497C18.5846 0.35352 18.3911 0.223368 18.1779 0.134548C17.9647 0.0457287 17.736 0 17.5051 0C17.2741 0 17.0454 0.0457287 16.8322 0.134548C16.6191 0.223368 16.4256 0.35352 16.2629 0.517497L0.517497 16.2629C0.353519 16.4256 0.223367 16.6191 0.134548 16.8323C0.0457286 17.0454 0 17.2741 0 17.5051C0 17.736 0.0457286 17.9647 0.134548 18.1779C0.223367 18.3911 0.353519 18.5846 0.517497 18.7472C0.680969 18.9094 0.874841 19.0376 1.08799 19.1247C1.30115 19.2118 1.52939 19.2559 1.75964 19.2546H3.50913V31.501C3.50913 32.429 3.87777 33.319 4.53396 33.9752C5.19014 34.6314 6.08012 35 7.00811 35H28.002C28.93 35 29.82 34.6314 30.4762 33.9752C31.1323 33.319 31.501 32.429 31.501 31.501V19.2546H33.2505C33.7145 19.2546 34.1595 19.0702 34.4876 18.7421C34.8157 18.4141 35 17.9691 35 17.5051C35.0013 17.2748 34.9572 17.0466 34.8701 16.8334C34.783 16.6203 34.6548 16.4264 34.4926 16.2629L18.7472 0.517497ZM7.00811 31.501V14.7234L17.5051 4.22642L28.002 14.7234V31.501H7.00811Z" fill="#48CAE4"/>
</svg>
