<svg width="50" height="50" viewBox="0 0 50 50" fill="none" xmlns="http://www.w3.org/2000/svg">
<path fill-rule="evenodd" clip-rule="evenodd" d="M15.552 2.22087C17.9958 2.10837 18.7749 2.08337 24.9999 2.08337C31.2249 2.08337 32.0041 2.11046 34.4458 2.22087C36.8874 2.33129 38.5541 2.72087 40.0124 3.28546C41.5395 3.86254 42.9249 4.76462 44.0707 5.93129C45.2374 7.07504 46.1374 8.45837 46.7124 9.98754C47.2791 11.4459 47.6666 13.1125 47.7791 15.55C47.8916 17.998 47.9166 18.7771 47.9166 25C47.9166 31.225 47.8895 32.0042 47.7791 34.448C47.6687 36.8855 47.2791 38.5521 46.7124 40.0105C46.1374 41.5398 45.2359 42.9255 44.0707 44.0709C42.9249 45.2375 41.5395 46.1375 40.0124 46.7125C38.5541 47.2792 36.8874 47.6667 34.4499 47.7792C32.0041 47.8917 31.2249 47.9167 24.9999 47.9167C18.7749 47.9167 17.9958 47.8896 15.552 47.7792C13.1145 47.6688 11.4478 47.2792 9.9895 46.7125C8.46017 46.1375 7.07454 45.236 5.92909 44.0709C4.76321 42.9264 3.86099 41.5415 3.28534 40.0125C2.72075 38.5542 2.33325 36.8875 2.22075 34.45C2.10825 32.0021 2.08325 31.223 2.08325 25C2.08325 18.775 2.11034 17.9959 2.22075 15.5542C2.33117 13.1125 2.72075 11.4459 3.28534 9.98754C3.86184 8.45854 4.76475 7.07361 5.93117 5.92921C7.075 4.76358 8.45924 3.86138 9.98742 3.28546C11.4458 2.72087 13.1124 2.33337 15.5499 2.22087H15.552ZM34.2603 6.34587C31.8437 6.23546 31.1187 6.21254 24.9999 6.21254C18.8812 6.21254 18.1562 6.23546 15.7395 6.34587C13.5041 6.44796 12.2916 6.82087 11.4833 7.13546C10.4145 7.55212 9.64992 8.04587 8.84784 8.84796C8.08751 9.58765 7.50238 10.4881 7.13533 11.4834C6.82075 12.2917 6.44783 13.5042 6.34575 15.7396C6.23534 18.1563 6.21242 18.8813 6.21242 25C6.21242 31.1188 6.23534 31.8438 6.34575 34.2605C6.44783 36.4959 6.82075 37.7084 7.13533 38.5167C7.502 39.5105 8.08742 40.4125 8.84784 41.1521C9.58742 41.9125 10.4895 42.498 11.4833 42.8646C12.2916 43.1792 13.5041 43.5521 15.7395 43.6542C18.1562 43.7646 18.8791 43.7875 24.9999 43.7875C31.1208 43.7875 31.8437 43.7646 34.2603 43.6542C36.4958 43.5521 37.7083 43.1792 38.5166 42.8646C39.5853 42.448 40.3499 41.9542 41.152 41.1521C41.9124 40.4125 42.4978 39.5105 42.8645 38.5167C43.1791 37.7084 43.552 36.4959 43.6541 34.2605C43.7645 31.8438 43.7874 31.1188 43.7874 25C43.7874 18.8813 43.7645 18.1563 43.6541 15.7396C43.552 13.5042 43.1791 12.2917 42.8645 11.4834C42.4478 10.4146 41.9541 9.65004 41.152 8.84796C40.4123 8.08769 39.5118 7.50256 38.5166 7.13546C37.7083 6.82087 36.4958 6.44796 34.2603 6.34587ZM22.0728 32.0646C23.7075 32.7451 25.5278 32.8369 27.2227 32.3245C28.9176 31.812 30.382 30.7269 31.3658 29.2547C32.3496 27.7825 32.7917 26.0144 32.6167 24.2523C32.4417 22.4903 31.6603 20.8437 30.4062 19.5938C29.6067 18.7948 28.6399 18.183 27.5756 17.8024C26.5113 17.4219 25.3758 17.282 24.2509 17.393C23.1261 17.5039 22.0398 17.8629 21.0703 18.4441C20.1009 19.0252 19.2723 19.8141 18.6443 20.7539C18.0163 21.6937 17.6045 22.7611 17.4385 23.8791C17.2725 24.9972 17.3565 26.1381 17.6844 27.2199C18.0123 28.3016 18.5759 29.2971 19.3348 30.1349C20.0936 30.9726 21.0287 31.6317 22.0728 32.0646ZM16.6708 16.6709C17.7646 15.5771 19.0631 14.7094 20.4922 14.1175C21.9213 13.5255 23.453 13.2208 24.9999 13.2208C26.5468 13.2208 28.0785 13.5255 29.5076 14.1175C30.9368 14.7094 32.2353 15.5771 33.3291 16.6709C34.4229 17.7647 35.2905 19.0632 35.8825 20.4923C36.4745 21.9214 36.7791 23.4532 36.7791 25C36.7791 26.5469 36.4745 28.0786 35.8825 29.5078C35.2905 30.9369 34.4229 32.2354 33.3291 33.3292C31.1201 35.5382 28.124 36.7793 24.9999 36.7793C21.8759 36.7793 18.8798 35.5382 16.6708 33.3292C14.4617 31.1202 13.2207 28.1241 13.2207 25C13.2207 21.876 14.4617 18.8799 16.6708 16.6709ZM39.3916 14.975C39.6626 14.7194 39.8796 14.4119 40.0297 14.0708C40.1798 13.7298 40.2599 13.3621 40.2654 12.9895C40.2708 12.6169 40.2014 12.247 40.0613 11.9017C39.9213 11.5564 39.7133 11.2428 39.4498 10.9793C39.1864 10.7158 38.8727 10.5079 38.5274 10.3678C38.1821 10.2277 37.8122 10.1583 37.4396 10.1638C37.0671 10.1692 36.6994 10.2493 36.3583 10.3994C36.0173 10.5495 35.7098 10.7665 35.4541 11.0375C34.9568 11.5647 34.6846 12.2649 34.6951 12.9895C34.7057 13.7141 34.9982 14.406 35.5107 14.9185C36.0231 15.4309 36.715 15.7234 37.4396 15.734C38.1642 15.7446 38.8644 15.4723 39.3916 14.975Z" fill="#48CAE4"/>
</svg>
