<svg width="50" height="50" viewBox="0 0 50 50" fill="none" xmlns="http://www.w3.org/2000/svg">
<path fill-rule="evenodd" clip-rule="evenodd" d="M2.08325 5.91255C2.08325 4.89699 2.48668 3.92302 3.20479 3.20492C3.9229 2.48681 4.89686 2.08338 5.91242 2.08338H44.0833C44.5865 2.08256 45.085 2.18101 45.5502 2.3731C46.0154 2.56519 46.4381 2.84715 46.7942 3.20283C47.1503 3.55851 47.4327 3.98093 47.6253 4.4459C47.8179 4.91087 47.9169 5.40927 47.9166 5.91255V44.0834C47.9171 44.5868 47.8184 45.0853 47.6261 45.5505C47.4338 46.0157 47.1516 46.4384 46.7958 46.7944C46.4399 47.1505 46.0174 47.4329 45.5523 47.6254C45.0872 47.818 44.5887 47.917 44.0853 47.9167H5.91242C5.40939 47.9167 4.91129 47.8176 4.44658 47.625C3.98187 47.4325 3.55965 47.1502 3.20405 46.7944C2.84845 46.4387 2.56644 46.0163 2.37413 45.5515C2.18182 45.0866 2.08298 44.5885 2.08325 44.0855V5.91255ZM20.2249 19.5584H26.4312V22.675C27.327 20.8834 29.6187 19.2709 33.0624 19.2709C39.6645 19.2709 41.2291 22.8396 41.2291 29.3875V41.5167H34.5478V30.8792C34.5478 27.15 33.652 25.0459 31.377 25.0459C28.2208 25.0459 26.9083 27.3146 26.9083 30.8792V41.5167H20.2249V19.5584ZM8.76659 41.2313H15.4499V19.2709H8.76659V41.2292V41.2313ZM16.4062 12.1084C16.4188 12.6806 16.3169 13.2496 16.1067 13.782C15.8964 14.3143 15.5819 14.7993 15.1817 15.2084C14.7814 15.6176 14.3035 15.9427 13.7759 16.1646C13.2483 16.3866 12.6817 16.5009 12.1093 16.5009C11.5369 16.5009 10.9703 16.3866 10.4427 16.1646C9.91513 15.9427 9.43719 15.6176 9.03694 15.2084C8.63669 14.7993 8.3222 14.3143 8.11192 13.782C7.90164 13.2496 7.79982 12.6806 7.81242 12.1084C7.83715 10.9852 8.30072 9.91628 9.10385 9.13064C9.90697 8.34501 10.9858 7.90508 12.1093 7.90508C13.2328 7.90508 14.3116 8.34501 15.1147 9.13064C15.9179 9.91628 16.3814 10.9852 16.4062 12.1084Z" fill="#48CAE4"/>
</svg>
