<svg width="35" height="35" viewBox="0 0 35 35" fill="none" xmlns="http://www.w3.org/2000/svg">
<path d="M15.625 17.5C15.625 17.9973 15.8226 18.4742 16.1742 18.8258C16.5258 19.1775 17.0027 19.375 17.5 19.375C17.9973 19.375 18.4742 19.1775 18.8258 18.8258C19.1774 18.4742 19.375 17.9973 19.375 17.5C19.375 17.0027 19.1774 16.5258 18.8258 16.1742C18.4742 15.8225 17.9973 15.625 17.5 15.625C17.0027 15.625 16.5258 15.8225 16.1742 16.1742C15.8226 16.5258 15.625 17.0027 15.625 17.5ZM23.4374 17.5C23.4374 17.9973 23.635 18.4742 23.9866 18.8258C24.3382 19.1775 24.8151 19.375 25.3124 19.375C25.8097 19.375 26.2866 19.1775 26.6382 18.8258C26.9898 18.4742 27.1874 17.9973 27.1874 17.5C27.1874 17.0027 26.9898 16.5258 26.6382 16.1742C26.2866 15.8225 25.8097 15.625 25.3124 15.625C24.8151 15.625 24.3382 15.8225 23.9866 16.1742C23.635 16.5258 23.4374 17.0027 23.4374 17.5ZM7.81262 17.5C7.81262 17.9973 8.01017 18.4742 8.36179 18.8258C8.71342 19.1775 9.19033 19.375 9.6876 19.375C10.1849 19.375 10.6618 19.1775 11.0134 18.8258C11.365 18.4742 11.5626 17.9973 11.5626 17.5C11.5626 17.0027 11.365 16.5258 11.0134 16.1742C10.6618 15.8225 10.1849 15.625 9.6876 15.625C9.19033 15.625 8.71342 15.8225 8.36179 16.1742C8.01017 16.5258 7.81262 17.0027 7.81262 17.5ZM33.6404 10.7188C32.7576 8.62109 31.492 6.73828 29.8788 5.12109C28.2768 3.51327 26.375 2.23524 24.2812 1.35938C22.1328 0.457031 19.8515 0 17.5 0H17.4219C15.0547 0.0117188 12.7618 0.480469 10.6056 1.40234C8.52964 2.28719 6.6457 3.56749 5.05875 5.17188C3.46112 6.78516 2.20723 8.66016 1.34005 10.75C0.441622 12.9141 -0.011497 15.2148 0.000221609 17.582C0.0134763 20.2948 0.655259 22.9676 1.8752 25.3906V31.3281C1.8752 31.8047 2.06451 32.2617 2.40148 32.5987C2.73846 32.9357 3.1955 33.125 3.67205 33.125H9.61338C12.0364 34.345 14.7091 34.9867 17.4219 35H17.5039C19.8437 35 22.1132 34.5469 24.2499 33.6602C26.3332 32.7947 28.2279 31.5316 29.828 29.9414C31.4412 28.3438 32.7108 26.4766 33.5975 24.3945C34.5193 22.2383 34.9881 19.9453 34.9998 17.5781C35.0115 15.1992 34.5506 12.8906 33.6404 10.7188ZM27.7382 27.8281C24.9999 30.5391 21.3671 32.0312 17.5 32.0312H17.4336C15.0782 32.0195 12.7383 31.4336 10.672 30.332L10.3438 30.1562H4.84391V24.6562L4.66813 24.3281C3.56658 22.2617 2.98065 19.9219 2.96893 17.5664C2.95331 13.6719 4.44157 10.0156 7.17201 7.26172C9.89854 4.50781 13.543 2.98438 17.4375 2.96875H17.5039C19.457 2.96875 21.3515 3.34766 23.1367 4.09766C24.8788 4.82812 26.4413 5.87891 27.785 7.22266C29.1249 8.5625 30.1795 10.1289 30.91 11.8711C31.6678 13.6758 32.0467 15.5898 32.0389 17.5664C32.0154 21.457 30.4881 25.1016 27.7382 27.8281Z" fill="black"/>
</svg>
