<svg width="27" height="27" viewBox="0 0 27 27" fill="none" xmlns="http://www.w3.org/2000/svg">
<g clip-path="url(#clip0_16_16)">
<path d="M13.5 25.71C13.9724 25.6991 14.4258 25.5215 14.7799 25.2086C15.1341 24.8956 15.3661 24.4675 15.435 24H11.49C11.5608 24.4802 11.8037 24.9184 12.1735 25.2329C12.5432 25.5475 13.0146 25.717 13.5 25.71Z" fill="#48CAE4"/>
<path d="M24.3825 20.8725C23.6593 20.2278 23.0261 19.4887 22.5 18.675C21.9257 17.552 21.5814 16.3255 21.4875 15.0675V11.3625C21.4845 10.9125 21.4443 10.4635 21.3675 10.02C20.7772 9.90205 20.2099 9.6893 19.6875 9.39005C19.8866 10.0312 19.9878 10.6987 19.9875 11.37V15.075C20.0794 16.6096 20.5015 18.1062 21.225 19.4625C21.7428 20.2831 22.3572 21.0385 23.055 21.7125H3.84751C4.54531 21.0385 5.1597 20.2831 5.67751 19.4625C6.40097 18.1062 6.82308 16.6096 6.91501 15.075V11.3625C6.91106 10.4946 7.07836 9.63433 7.40734 8.83109C7.73631 8.02785 8.2205 7.2974 8.83217 6.68155C9.44384 6.0657 10.171 5.57655 10.972 5.24211C11.7729 4.90767 12.632 4.73451 13.5 4.73255C14.7703 4.73357 16.0121 5.10924 17.07 5.81255C16.9534 5.38429 16.8879 4.94372 16.875 4.50005V4.02755C16.0919 3.64232 15.2506 3.38892 14.385 3.27755V2.33255C14.385 2.067 14.2795 1.81233 14.0917 1.62456C13.904 1.43679 13.6493 1.3313 13.3838 1.3313C13.1182 1.3313 12.8635 1.43679 12.6758 1.62456C12.488 1.81233 12.3825 2.067 12.3825 2.33255V3.31505C10.4443 3.58846 8.67044 4.55386 7.38842 6.033C6.10641 7.51214 5.4028 9.40515 5.40751 11.3625V15.0675C5.31357 16.3255 4.96934 17.552 4.39501 18.675C3.87817 19.4868 3.25515 20.2259 2.54251 20.8725C2.4625 20.9428 2.39839 21.0293 2.35442 21.1263C2.31045 21.2233 2.28764 21.3286 2.28751 21.435V22.455C2.28751 22.654 2.36652 22.8447 2.50718 22.9854C2.64783 23.126 2.83859 23.205 3.03751 23.205H23.8875C24.0864 23.205 24.2772 23.126 24.4178 22.9854C24.5585 22.8447 24.6375 22.654 24.6375 22.455V21.435C24.6374 21.3286 24.6146 21.2233 24.5706 21.1263C24.5266 21.0293 24.4625 20.9428 24.3825 20.8725Z" fill="#48CAE4"/>
<path d="M22.5 8.25C24.5711 8.25 26.25 6.57107 26.25 4.5C26.25 2.42893 24.5711 0.75 22.5 0.75C20.4289 0.75 18.75 2.42893 18.75 4.5C18.75 6.57107 20.4289 8.25 22.5 8.25Z" fill="#48CAE4"/>
</g>
<defs>
<clipPath id="clip0_16_16">
<rect width="27" height="27" fill="white"/>
</clipPath>
</defs>
</svg>
