<svg width="53" height="53" viewBox="0 0 53 53" fill="none" xmlns="http://www.w3.org/2000/svg">
<path fill-rule="evenodd" clip-rule="evenodd" d="M46.375 14.9062V46.375C46.375 48.1321 45.677 49.8172 44.4346 51.0596C43.1922 52.302 41.5071 53 39.75 53H36.4375V49.6875H39.75C40.6285 49.6875 41.4711 49.3385 42.0923 48.7173C42.7135 48.0961 43.0625 47.2535 43.0625 46.375V14.9062H36.4375C35.1197 14.9062 33.8559 14.3828 32.9241 13.4509C31.9922 12.5191 31.4688 11.2553 31.4688 9.9375V3.3125H13.25C12.3715 3.3125 11.5289 3.66149 10.9077 4.28271C10.2865 4.90392 9.9375 5.74647 9.9375 6.625V36.4375H6.625V6.625C6.625 4.86794 7.32299 3.18285 8.56542 1.94042C9.80785 0.697989 11.4929 0 13.25 0L31.4688 0L46.375 14.9062ZM5.3 39.2531H0V52.4998H2.62019V48.0544H5.28013C6.23081 48.0544 7.03906 47.8656 7.70487 47.4814C8.37731 47.0938 8.89075 46.5704 9.23856 45.9112C9.59958 45.2195 9.78286 44.4489 9.77188 43.6687C9.77188 42.8406 9.59631 42.0919 9.2485 41.4261C8.90254 40.7643 8.37363 40.2158 7.72475 39.8461C7.06225 39.4486 6.25731 39.2531 5.3 39.2531ZM7.10531 43.6687C7.11725 44.1051 7.0205 44.5377 6.82375 44.9274C6.64724 45.2668 6.37248 45.545 6.03538 45.7257C5.64976 45.9165 5.22323 46.0098 4.79319 45.9974H2.61025V41.34H4.7965C5.51862 41.34 6.08506 41.5387 6.4925 41.9396C6.89994 42.3437 7.10531 42.9201 7.10531 43.6687ZM11.1366 39.2531V52.4998H15.9729C17.3012 52.4998 18.4043 52.2348 19.2788 51.7148C20.1637 51.1853 20.8548 50.3851 21.2497 49.4324C21.6803 48.4387 21.8989 47.2396 21.8989 45.8417C21.8989 44.4504 21.6836 43.2646 21.2497 42.2808C20.8594 41.3391 20.175 40.5489 19.2986 40.0282C18.4241 39.5115 17.3144 39.2531 15.9696 39.2531H11.1366ZM13.7568 41.3897H15.6217C16.4433 41.3897 17.1124 41.5553 17.6391 41.8932C18.1858 42.2507 18.5982 42.7797 18.8117 43.3971C19.0734 44.0629 19.2026 44.8943 19.2026 45.8914C19.2128 46.552 19.1371 47.2112 18.9773 47.8524C18.8593 48.358 18.6383 48.8339 18.3281 49.2503C18.0399 49.6217 17.658 49.9098 17.2217 50.085C16.7105 50.2763 16.1675 50.3685 15.6217 50.3566H13.7568V41.3897ZM26.1555 47.2296V52.4998H23.5386V39.2531H31.9789V41.4162H26.1555V45.1162H31.4754V47.2296H26.1555Z" fill="#AAAAAA"/>
</svg>
