<svg width="50" height="50" viewBox="0 0 50 50" fill="none" xmlns="http://www.w3.org/2000/svg">
<path d="M49.2563 10.2854C47.5167 11.0562 45.648 11.577 43.6834 11.8125C45.7105 10.5995 47.227 8.69051 47.9501 6.44162C46.0456 7.57285 43.9612 8.36911 41.7876 8.79579C40.3259 7.23509 38.3898 6.20064 36.2799 5.85303C34.17 5.50542 32.0044 5.86411 30.1193 6.8734C28.2342 7.88269 26.735 9.48613 25.8546 11.4348C24.9741 13.3834 24.7616 15.5682 25.2501 17.65C21.3911 17.4562 17.616 16.4532 14.1697 14.706C10.7234 12.9588 7.68307 10.5065 5.2459 7.50829C4.41256 8.94579 3.9334 10.6125 3.9334 12.3875C3.93247 13.9854 4.32597 15.5588 5.07898 16.9682C5.83199 18.3775 6.92123 19.5792 8.25006 20.4666C6.70897 20.4176 5.20188 20.0012 3.85423 19.252V19.377C3.85408 21.6182 4.6293 23.7903 6.04836 25.525C7.46743 27.2596 9.44292 28.4498 11.6396 28.8937C10.21 29.2806 8.71118 29.3376 7.25631 29.0604C7.8761 30.9887 9.08339 32.675 10.7092 33.8831C12.3349 35.0913 14.2978 35.7607 16.323 35.7979C12.8851 38.4967 8.63941 39.9606 4.26882 39.9541C3.49461 39.9543 2.72106 39.9091 1.95215 39.8187C6.38856 42.6712 11.5529 44.185 16.8271 44.1791C34.6813 44.1791 44.4417 29.3916 44.4417 16.5666C44.4417 16.15 44.4313 15.7291 44.4126 15.3125C46.3111 13.9395 47.9499 12.2393 49.2521 10.2916L49.2563 10.2854Z" fill="#48CAE4"/>
</svg>
